<mxfile host="app.diagrams.net" modified="2020-11-04T13:42:59.504Z" agent="5.0 (Macintosh; Intel Mac OS X 10_14_6) AppleWebKit/605.1.15 (KHTML, like Gecko) Version/13.0.5 Safari/605.1.15" etag="Py1GRB_FIOQYbYsAkqZw" version="13.8.9-1" type="github">
  <diagram id="hBNXoAgqdQ7zWWHtI1lO" name="Page-1">
    <mxGraphModel dx="2859" dy="1075" grid="1" gridSize="10" guides="1" tooltips="1" connect="1" arrows="1" fold="1" page="1" pageScale="1" pageWidth="1169" pageHeight="827" math="0" shadow="0">
      <root>
        <mxCell id="0" />
        <mxCell id="1" parent="0" />
        <mxCell id="zMBcx4og2OsscHtND6ZQ-58" value="" style="shape=process;whiteSpace=wrap;html=1;backgroundOutline=1;size=0.01904761904761905;" parent="1" vertex="1">
          <mxGeometry x="-1150" y="120" width="1050" height="571" as="geometry" />
        </mxCell>
        <mxCell id="zMBcx4og2OsscHtND6ZQ-3" style="edgeStyle=orthogonalEdgeStyle;rounded=0;orthogonalLoop=1;jettySize=auto;html=1;exitX=1;exitY=0.5;exitDx=0;exitDy=0;startArrow=classic;startFill=1;endArrow=none;endFill=0;" parent="1" source="zMBcx4og2OsscHtND6ZQ-1" target="zMBcx4og2OsscHtND6ZQ-2" edge="1">
          <mxGeometry relative="1" as="geometry" />
        </mxCell>
        <mxCell id="zMBcx4og2OsscHtND6ZQ-33" style="edgeStyle=orthogonalEdgeStyle;shape=link;rounded=0;orthogonalLoop=1;jettySize=auto;html=1;exitX=0.5;exitY=0;exitDx=0;exitDy=0;" parent="1" source="zMBcx4og2OsscHtND6ZQ-1" target="zMBcx4og2OsscHtND6ZQ-32" edge="1">
          <mxGeometry relative="1" as="geometry" />
        </mxCell>
        <mxCell id="zMBcx4og2OsscHtND6ZQ-1" value="S" style="ellipse;whiteSpace=wrap;html=1;" parent="1" vertex="1">
          <mxGeometry x="-1068.3400000000001" y="310" width="46.67" height="40" as="geometry" />
        </mxCell>
        <mxCell id="zMBcx4og2OsscHtND6ZQ-11" style="edgeStyle=orthogonalEdgeStyle;rounded=0;orthogonalLoop=1;jettySize=auto;html=1;exitX=1;exitY=0.5;exitDx=0;exitDy=0;entryX=0;entryY=0.5;entryDx=0;entryDy=0;startArrow=classic;startFill=1;endArrow=none;endFill=0;" parent="1" source="zMBcx4og2OsscHtND6ZQ-2" target="zMBcx4og2OsscHtND6ZQ-6" edge="1">
          <mxGeometry relative="1" as="geometry" />
        </mxCell>
        <mxCell id="zMBcx4og2OsscHtND6ZQ-23" style="edgeStyle=orthogonalEdgeStyle;rounded=0;orthogonalLoop=1;jettySize=auto;html=1;exitX=1;exitY=0.75;exitDx=0;exitDy=0;entryX=0;entryY=0.5;entryDx=0;entryDy=0;startArrow=classic;startFill=1;endArrow=none;endFill=0;" parent="1" source="zMBcx4og2OsscHtND6ZQ-2" target="zMBcx4og2OsscHtND6ZQ-10" edge="1">
          <mxGeometry relative="1" as="geometry" />
        </mxCell>
        <mxCell id="zMBcx4og2OsscHtND6ZQ-2" value="receivment" style="rounded=0;whiteSpace=wrap;html=1;" parent="1" vertex="1">
          <mxGeometry x="-978.34" y="310" width="80" height="40" as="geometry" />
        </mxCell>
        <mxCell id="zMBcx4og2OsscHtND6ZQ-13" style="edgeStyle=orthogonalEdgeStyle;rounded=0;orthogonalLoop=1;jettySize=auto;html=1;exitX=1;exitY=0.5;exitDx=0;exitDy=0;entryX=0;entryY=0.5;entryDx=0;entryDy=0;startArrow=classic;startFill=1;endArrow=none;endFill=0;" parent="1" source="zMBcx4og2OsscHtND6ZQ-6" target="zMBcx4og2OsscHtND6ZQ-7" edge="1">
          <mxGeometry relative="1" as="geometry" />
        </mxCell>
        <mxCell id="zMBcx4og2OsscHtND6ZQ-6" value="S" style="ellipse;whiteSpace=wrap;html=1;" parent="1" vertex="1">
          <mxGeometry x="-858.34" y="310" width="50" height="40" as="geometry" />
        </mxCell>
        <mxCell id="zMBcx4og2OsscHtND6ZQ-14" style="edgeStyle=orthogonalEdgeStyle;rounded=0;orthogonalLoop=1;jettySize=auto;html=1;exitX=1;exitY=0.5;exitDx=0;exitDy=0;entryX=0;entryY=0.5;entryDx=0;entryDy=0;startArrow=classic;startFill=1;endArrow=none;endFill=0;" parent="1" source="zMBcx4og2OsscHtND6ZQ-7" target="zMBcx4og2OsscHtND6ZQ-9" edge="1">
          <mxGeometry relative="1" as="geometry" />
        </mxCell>
        <mxCell id="zMBcx4og2OsscHtND6ZQ-7" value="cleaning" style="rounded=0;whiteSpace=wrap;html=1;" parent="1" vertex="1">
          <mxGeometry x="-768.34" y="310" width="80" height="40" as="geometry" />
        </mxCell>
        <mxCell id="zMBcx4og2OsscHtND6ZQ-16" style="edgeStyle=orthogonalEdgeStyle;rounded=0;orthogonalLoop=1;jettySize=auto;html=1;exitX=1;exitY=0.5;exitDx=0;exitDy=0;entryX=0;entryY=0.5;entryDx=0;entryDy=0;startArrow=classic;startFill=1;endArrow=none;endFill=0;" parent="1" source="zMBcx4og2OsscHtND6ZQ-9" target="zMBcx4og2OsscHtND6ZQ-15" edge="1">
          <mxGeometry relative="1" as="geometry" />
        </mxCell>
        <mxCell id="zMBcx4og2OsscHtND6ZQ-67" style="edgeStyle=orthogonalEdgeStyle;rounded=0;orthogonalLoop=1;jettySize=auto;html=1;exitX=0.5;exitY=1;exitDx=0;exitDy=0;entryX=0.5;entryY=1;entryDx=0;entryDy=0;" parent="1" source="zMBcx4og2OsscHtND6ZQ-9" target="zMBcx4og2OsscHtND6ZQ-6" edge="1">
          <mxGeometry relative="1" as="geometry">
            <Array as="points">
              <mxPoint x="-625" y="381" />
              <mxPoint x="-833" y="381" />
            </Array>
          </mxGeometry>
        </mxCell>
        <mxCell id="zMBcx4og2OsscHtND6ZQ-9" value="S" style="ellipse;whiteSpace=wrap;html=1;" parent="1" vertex="1">
          <mxGeometry x="-648.34" y="310" width="46.67" height="40" as="geometry" />
        </mxCell>
        <mxCell id="zMBcx4og2OsscHtND6ZQ-63" style="edgeStyle=orthogonalEdgeStyle;shape=link;rounded=0;orthogonalLoop=1;jettySize=auto;html=1;exitX=1;exitY=0.5;exitDx=0;exitDy=0;entryX=0.462;entryY=0.125;entryDx=0;entryDy=0;entryPerimeter=0;" parent="1" source="zMBcx4og2OsscHtND6ZQ-10" target="zMBcx4og2OsscHtND6ZQ-35" edge="1">
          <mxGeometry relative="1" as="geometry" />
        </mxCell>
        <mxCell id="zMBcx4og2OsscHtND6ZQ-10" value="PV" style="ellipse;whiteSpace=wrap;html=1;" parent="1" vertex="1">
          <mxGeometry x="-858.34" y="400" width="46.67" height="40" as="geometry" />
        </mxCell>
        <mxCell id="zMBcx4og2OsscHtND6ZQ-19" style="edgeStyle=orthogonalEdgeStyle;rounded=0;orthogonalLoop=1;jettySize=auto;html=1;exitX=1;exitY=0.25;exitDx=0;exitDy=0;entryX=0;entryY=0.5;entryDx=0;entryDy=0;startArrow=classic;startFill=1;endArrow=none;endFill=0;" parent="1" source="zMBcx4og2OsscHtND6ZQ-15" target="zMBcx4og2OsscHtND6ZQ-17" edge="1">
          <mxGeometry relative="1" as="geometry" />
        </mxCell>
        <mxCell id="zMBcx4og2OsscHtND6ZQ-15" value="scaning" style="rounded=0;whiteSpace=wrap;html=1;" parent="1" vertex="1">
          <mxGeometry x="-558.34" y="310" width="80" height="40" as="geometry" />
        </mxCell>
        <mxCell id="zMBcx4og2OsscHtND6ZQ-42" style="edgeStyle=orthogonalEdgeStyle;shape=link;rounded=0;orthogonalLoop=1;jettySize=auto;html=1;exitX=1;exitY=0.5;exitDx=0;exitDy=0;entryX=0.5;entryY=0.113;entryDx=0;entryDy=0;entryPerimeter=0;" parent="1" source="zMBcx4og2OsscHtND6ZQ-17" target="zMBcx4og2OsscHtND6ZQ-41" edge="1">
          <mxGeometry relative="1" as="geometry" />
        </mxCell>
        <mxCell id="zMBcx4og2OsscHtND6ZQ-17" value="S" style="ellipse;whiteSpace=wrap;html=1;" parent="1" vertex="1">
          <mxGeometry x="-428.34000000000003" y="290" width="46.67" height="40" as="geometry" />
        </mxCell>
        <mxCell id="zMBcx4og2OsscHtND6ZQ-39" style="edgeStyle=orthogonalEdgeStyle;shape=link;rounded=0;orthogonalLoop=1;jettySize=auto;html=1;exitX=0.5;exitY=1;exitDx=0;exitDy=0;entryX=0.56;entryY=0.125;entryDx=0;entryDy=0;entryPerimeter=0;" parent="1" source="zMBcx4og2OsscHtND6ZQ-18" target="zMBcx4og2OsscHtND6ZQ-37" edge="1">
          <mxGeometry relative="1" as="geometry" />
        </mxCell>
        <mxCell id="zMBcx4og2OsscHtND6ZQ-74" style="edgeStyle=orthogonalEdgeStyle;rounded=0;orthogonalLoop=1;jettySize=auto;html=1;entryX=1;entryY=0.5;entryDx=0;entryDy=0;startArrow=none;startFill=0;endArrow=classic;endFill=1;" parent="1" source="zMBcx4og2OsscHtND6ZQ-18" target="zMBcx4og2OsscHtND6ZQ-15" edge="1">
          <mxGeometry relative="1" as="geometry" />
        </mxCell>
        <mxCell id="zMBcx4og2OsscHtND6ZQ-18" value="WSI" style="ellipse;whiteSpace=wrap;html=1;" parent="1" vertex="1">
          <mxGeometry x="-428.34000000000003" y="350" width="46.67" height="40" as="geometry" />
        </mxCell>
        <mxCell id="zMBcx4og2OsscHtND6ZQ-22" style="edgeStyle=orthogonalEdgeStyle;rounded=0;orthogonalLoop=1;jettySize=auto;html=1;exitX=1;exitY=0.5;exitDx=0;exitDy=0;entryX=0;entryY=0.25;entryDx=0;entryDy=0;startArrow=classic;startFill=1;endArrow=none;endFill=0;" parent="1" source="zMBcx4og2OsscHtND6ZQ-21" target="zMBcx4og2OsscHtND6ZQ-15" edge="1">
          <mxGeometry relative="1" as="geometry" />
        </mxCell>
        <mxCell id="zMBcx4og2OsscHtND6ZQ-45" style="edgeStyle=orthogonalEdgeStyle;shape=link;rounded=0;orthogonalLoop=1;jettySize=auto;html=1;exitX=0;exitY=0.5;exitDx=0;exitDy=0;entryX=0.96;entryY=0.7;entryDx=0;entryDy=0;entryPerimeter=0;" parent="1" source="zMBcx4og2OsscHtND6ZQ-21" target="zMBcx4og2OsscHtND6ZQ-40" edge="1">
          <mxGeometry relative="1" as="geometry" />
        </mxCell>
        <mxCell id="zMBcx4og2OsscHtND6ZQ-21" value="REQ" style="ellipse;whiteSpace=wrap;html=1;" parent="1" vertex="1">
          <mxGeometry x="-648.34" y="250" width="50" height="40" as="geometry" />
        </mxCell>
        <mxCell id="zMBcx4og2OsscHtND6ZQ-32" value="&lt;span style=&quot;color: rgb(51 , 51 , 51)&quot;&gt;PHYSIC SLIDE&lt;/span&gt;" style="ellipse;shape=cloud;whiteSpace=wrap;html=1;fillColor=#f5f5f5;strokeColor=#666666;fontColor=#333333;" parent="1" vertex="1">
          <mxGeometry x="-1120" y="160" width="150" height="80" as="geometry" />
        </mxCell>
        <mxCell id="zMBcx4og2OsscHtND6ZQ-65" style="edgeStyle=orthogonalEdgeStyle;shape=link;rounded=0;orthogonalLoop=1;jettySize=auto;html=1;exitX=0.55;exitY=0.95;exitDx=0;exitDy=0;exitPerimeter=0;entryX=0.25;entryY=0;entryDx=0;entryDy=0;" parent="1" source="zMBcx4og2OsscHtND6ZQ-35" target="zMBcx4og2OsscHtND6ZQ-64" edge="1">
          <mxGeometry relative="1" as="geometry" />
        </mxCell>
        <mxCell id="zMBcx4og2OsscHtND6ZQ-35" value="&lt;span style=&quot;color: rgb(51 , 51 , 51)&quot;&gt;PREVIEW PICT&lt;br&gt;&lt;br&gt;&lt;/span&gt;" style="ellipse;shape=cloud;whiteSpace=wrap;html=1;fillColor=#dae8fc;strokeColor=#6c8ebf;" parent="1" vertex="1">
          <mxGeometry x="-648.3399999999999" y="560" width="150" height="80" as="geometry" />
        </mxCell>
        <mxCell id="zMBcx4og2OsscHtND6ZQ-66" style="edgeStyle=orthogonalEdgeStyle;shape=link;rounded=0;orthogonalLoop=1;jettySize=auto;html=1;exitX=0.55;exitY=0.95;exitDx=0;exitDy=0;exitPerimeter=0;entryX=0.698;entryY=-0.033;entryDx=0;entryDy=0;entryPerimeter=0;" parent="1" source="zMBcx4og2OsscHtND6ZQ-37" target="zMBcx4og2OsscHtND6ZQ-64" edge="1">
          <mxGeometry relative="1" as="geometry" />
        </mxCell>
        <mxCell id="zMBcx4og2OsscHtND6ZQ-37" value="&lt;span style=&quot;color: rgb(51 , 51 , 51)&quot;&gt;WSI&lt;br&gt;&lt;/span&gt;" style="ellipse;shape=cloud;whiteSpace=wrap;html=1;fillColor=#dae8fc;strokeColor=#6c8ebf;" parent="1" vertex="1">
          <mxGeometry x="-488.34000000000003" y="560" width="150" height="80" as="geometry" />
        </mxCell>
        <mxCell id="zMBcx4og2OsscHtND6ZQ-40" value="&lt;span style=&quot;color: rgb(51 , 51 , 51)&quot;&gt;REQUEST FORM&lt;/span&gt;" style="ellipse;shape=cloud;whiteSpace=wrap;html=1;fillColor=#f5f5f5;strokeColor=#666666;fontColor=#333333;" parent="1" vertex="1">
          <mxGeometry x="-978.34" y="160" width="151.66" height="80" as="geometry" />
        </mxCell>
        <mxCell id="zMBcx4og2OsscHtND6ZQ-41" value="&lt;span style=&quot;color: rgb(51 , 51 , 51)&quot;&gt;PHYSIC SLIDE&lt;/span&gt;" style="ellipse;shape=cloud;whiteSpace=wrap;html=1;fillColor=#dae8fc;strokeColor=#6c8ebf;" parent="1" vertex="1">
          <mxGeometry x="-328.34000000000015" y="560" width="150" height="80" as="geometry" />
        </mxCell>
        <mxCell id="zMBcx4og2OsscHtND6ZQ-61" style="edgeStyle=orthogonalEdgeStyle;shape=link;rounded=0;orthogonalLoop=1;jettySize=auto;html=1;exitX=0.5;exitY=0;exitDx=0;exitDy=0;entryX=0.25;entryY=1;entryDx=0;entryDy=0;" parent="1" source="zMBcx4og2OsscHtND6ZQ-50" target="zMBcx4og2OsscHtND6ZQ-53" edge="1">
          <mxGeometry relative="1" as="geometry" />
        </mxCell>
        <mxCell id="zMBcx4og2OsscHtND6ZQ-50" value="ID-XX" style="shape=hexagon;perimeter=hexagonPerimeter2;whiteSpace=wrap;html=1;fixedSize=1;" parent="1" vertex="1">
          <mxGeometry x="-1098.3400000000001" y="142" width="70" height="28" as="geometry" />
        </mxCell>
        <mxCell id="zMBcx4og2OsscHtND6ZQ-51" value="ID-XX" style="shape=hexagon;perimeter=hexagonPerimeter2;whiteSpace=wrap;html=1;fixedSize=1;" parent="1" vertex="1">
          <mxGeometry x="-238.34000000000003" y="550" width="70" height="28" as="geometry" />
        </mxCell>
        <mxCell id="zMBcx4og2OsscHtND6ZQ-53" value="SLIDE DEL" style="shape=process;whiteSpace=wrap;html=1;backgroundOutline=1;" parent="1" vertex="1">
          <mxGeometry x="-1094" y="20" width="120" height="60" as="geometry" />
        </mxCell>
        <mxCell id="zMBcx4og2OsscHtND6ZQ-60" style="edgeStyle=orthogonalEdgeStyle;shape=link;rounded=0;orthogonalLoop=1;jettySize=auto;html=1;" parent="1" source="zMBcx4og2OsscHtND6ZQ-59" target="zMBcx4og2OsscHtND6ZQ-41" edge="1">
          <mxGeometry relative="1" as="geometry" />
        </mxCell>
        <mxCell id="zMBcx4og2OsscHtND6ZQ-59" value="SLIDE REC" style="shape=process;whiteSpace=wrap;html=1;backgroundOutline=1;" parent="1" vertex="1">
          <mxGeometry x="-313.34" y="721" width="120" height="60" as="geometry" />
        </mxCell>
        <mxCell id="zMBcx4og2OsscHtND6ZQ-62" value="ScanningProcess" style="text;html=1;strokeColor=none;fillColor=none;align=center;verticalAlign=middle;whiteSpace=wrap;rounded=0;" parent="1" vertex="1">
          <mxGeometry x="-1150" y="91" width="1050" height="20" as="geometry" />
        </mxCell>
        <mxCell id="zMBcx4og2OsscHtND6ZQ-64" value="DATA STORAGE" style="shape=process;whiteSpace=wrap;html=1;backgroundOutline=1;" parent="1" vertex="1">
          <mxGeometry x="-598.3399999999999" y="721" width="208.34" height="60" as="geometry" />
        </mxCell>
        <mxCell id="zMBcx4og2OsscHtND6ZQ-68" value="?" style="text;html=1;strokeColor=none;fillColor=none;align=center;verticalAlign=middle;whiteSpace=wrap;rounded=0;" parent="1" vertex="1">
          <mxGeometry x="-748.34" y="360" width="40" height="20" as="geometry" />
        </mxCell>
        <mxCell id="zMBcx4og2OsscHtND6ZQ-69" value="" style="ellipse;shape=cloud;whiteSpace=wrap;html=1;" parent="1" vertex="1">
          <mxGeometry x="-488.34" y="33.329999999999984" width="70" height="46.67" as="geometry" />
        </mxCell>
        <mxCell id="zMBcx4og2OsscHtND6ZQ-72" value="what is this ?&lt;br&gt;&amp;nbsp; &amp;nbsp; message, input, outout&lt;br&gt;&amp;nbsp; &amp;nbsp; physical / real world object" style="text;html=1;strokeColor=none;fillColor=none;align=left;verticalAlign=middle;whiteSpace=wrap;rounded=0;" parent="1" vertex="1">
          <mxGeometry x="-418.34" y="33.33" width="160" height="61" as="geometry" />
        </mxCell>
      </root>
    </mxGraphModel>
  </diagram>
</mxfile>
